:SAMPLES-PER-SECOND 30
:FULLY-SPECIFIED
:DEGREES
199
root  -3.68658 36.3513 3.7226 178.42 34.3002 -178.802
RightUpLeg  -17.1166 0.21525 -16.7955
RightLeg  31.5798 1.62092 0.827868
RightFoot  -10.5881 -0.247961 25.9593
RightToes  -5.8209e-011 0 -3.6325e-017
Spine  10.143 -1.56286 -11.7593
Spine1  23.4133 -5.3714 5.88813
HEad  -9.47241 34.3154 -2.37495
LeftShoulder1  0.715678 0.637552 -18.3556
LeftArm  13.7949 6.59766 -62.8362
LeftForeArm  35.4404 -77.7465 -70.8999
LeftHand  -2.25206 -1.24289 38.3379
RightShoulder  0.910913 0.215661 18.0138
RightArm  -17.3045 -23.0845 63.1612
RightForeArm  -10.9026 63.3036 24.4958
RightHand  -4.48143 8.01921 -37.7261
LeftUpLeg  -9.17084 -7.79891 20.1531
LeftLeg  42.0375 1.17482 1.53626
LeftFoot  -13.4367 -0.418771 -27.0074
LeftToes  -3.91115e-011 -2.2622e-010 9.51032e-012
200
root  -4.69746 36.7837 3.35998 178.633 33.0513 -179.536
RightUpLeg  -14.8691 1.41043 -18.8596
RightLeg  25.6009 -1.34531 -0.769094
RightFoot  -6.2105 -1.22438 26.1907
RightToes  -5.8209e-011 0 -3.6325e-017
Spine  9.20548 -1.7656 -9.62749
Spine1  22.9792 -3.3472 0.97042
HEad  -5.57839 29.7141 3.09859
LeftShoulder1  0.669756 0.5584 -16.0088
LeftArm  15.9689 1.88694 -65.0174
LeftForeArm  28.084 -77.1631 -64.6458
LeftHand  -2.25701 -1.09212 39.2381
RightShoulder  0.747258 0.105714 13.8517
RightArm  -17.6863 -22.354 67.4441
RightForeArm  -18.2024 60.8509 22.4241
RightHand  -4.67064 7.99933 -39.2461
LeftUpLeg  -9.37496 -7.1198 17.9711
LeftLeg  39.5724 0.915543 1.20199
LeftFoot  -14.0888 -0.543256 -25.7119
LeftToes  -3.91115e-011 -2.2622e-010 9.51032e-012
201
root  -5.67865 37.5015 2.99718 179.089 34.2923 -179.853
RightUpLeg  -12.808 1.93472 -19.4639
RightLeg  17.4392 -5.25033 -2.84451
RightFoot  3.06862 -3.04797 24.0685
RightToes  -5.8209e-011 0 -3.6325e-017
Spine  7.52027 -1.83859 -5.38208
Spine1  22.8418 0.0487525 -6.56593
HEad  -1.57587 25.4283 8.45357
LeftShoulder1  0.573263 0.336444 -10.851
LeftArm  17.391 -0.828721 -67.5951
LeftForeArm  22.3959 -76.7925 -62.4157
LeftHand  -2.36494 -0.972537 41.6503
RightShoulder  0.557594 0.196527 7.63062
RightArm  -14.6406 -19.1879 72.6899
RightForeArm  -25.3703 59.4479 21.4935
RightHand  -4.82045 8.03064 -40.3109
LeftUpLeg  -7.42597 -7.23212 15.3518
LeftLeg  34.7235 2.87659 2.4725
LeftFoot  -13.1677 -0.32768 -25.2261
LeftToes  -3.91115e-011 -2.2622e-010 9.51032e-012
202
root  -6.53236 38.5007 2.66703 179.966 38.2767 -179.669
RightUpLeg  -11.4322 -5.53497 -17.1137
RightLeg  7.2436 -4.5116 -4.0321
RightFoot  17.6314 -5.72782 22.3388
RightToes  -5.8209e-011 0 -3.6325e-017
Spine  5.91123 -1.47743 -0.688649
Spine1  21.7356 3.86173 -14.4224
HEad  3.41343 23.3618 12.9643
LeftShoulder1  0.368516 0.625724 -4.78185
LeftArm  18.3707 -0.703126 -68.6366
LeftForeArm  24.424 -77.2729 -68.9888
LeftHand  -2.49965 -0.981534 43.7907
RightShoulder  0.375895 0.565589 0.964834
RightArm  -8.98889 -14.2041 76.8514
RightForeArm  -27.4795 63.4567 26.2224
RightHand  -4.94458 8.12436 -40.9967
LeftUpLeg  -3.83598 -7.1447 12.8212
LeftLeg  27.9163 7.66439 4.65759
LeftFoot  -9.61159 0.431065 -24.7226
LeftToes  -3.91115e-011 -2.2622e-010 9.51032e-012
203
root  -7.18341 39.5978 2.46634 -178.817 42.5919 -179.518
RightUpLeg  -11.1756 -11.9358 -15.1179
RightLeg  -0.408929 -8.03732 -1.13817
RightFoot  31.5744 -8.5234 22.0364
RightToes  -5.8209e-011 0 -3.6325e-017
Spine  5.73224 -1.12107 1.81814
Spine1  18.419 6.02241 -19.977
HEad  8.92081 23.7469 16.1195
LeftShoulder1  0.165067 1.62183 -0.404953
LeftArm  19.7338 1.73456 -66.9615
LeftForeArm  36.9423 -77.9645 -84.0472
LeftHand  -2.39062 -0.76688 43.3363
RightShoulder  0.148993 0.371823 -5.42418
RightArm  -4.94105 -7.89985 80.3077
RightForeArm  -15.8936 71.8299 42.1584
RightHand  -4.97554 8.13475 -41.2009
LeftUpLeg  -1.43091 -5.5415 10.9182
LeftLeg  21.6324 12.7826 6.10452
LeftFoot  -2.56534 1.79455 -23.0122
LeftToes  -3.91115e-011 -2.2622e-010 9.51032e-012
204
root  -7.70811 40.6812 2.4283 -177.898 44.597 -179.843
RightUpLeg  -11.3499 -12.7071 -14.0307
RightLeg  -1.9955 -13.6348 2.20991
RightFoot  38.8359 -10.3261 22.4709
RightToes  -5.8209e-011 0 -3.6325e-017
Spine  7.08792 -1.23124 1.37538
Spine1  14.1287 5.68274 -21.6023
HEad  13.4111 25.1369 17.9733
LeftShoulder1  0.0818727 2.36928 1.23699
LeftArm  21.1424 5.11099 -63.7839
LeftForeArm  53.0863 -77.8862 -99.747
LeftHand  -2.11003 -0.365076 41.1729
RightShoulder  -0.0241598 -1.51404 -11.8717
RightArm  -2.839 -0.287897 84.2165
RightForeArm  13.0431 77.2266 72.4915
RightHand  -4.80182 7.84652 -40.6757
LeftUpLeg  -1.61648 -0.61487 10.0292
LeftLeg  17.1761 12.8434 5.84817
LeftFoot  7.78169 3.57962 -21.2861
LeftToes  -3.91115e-011 -2.2622e-010 9.51032e-012
205
root  -8.21859 41.6497 2.43139 -177.673 43.9005 179.571
RightUpLeg  -11.2013 -11.5065 -12.4588
RightLeg  0.579312 -11.7068 1.43669
RightFoot  40.2749 -10.7883 22.7163
RightToes  -5.8209e-011 0 -3.6325e-017
Spine  8.75848 -1.57848 -0.220213
Spine1  11.2292 4.14837 -19.8836
HEad  16.0777 25.8097 19.2038
LeftShoulder1  0.119682 1.97703 0.772802
LeftArm  21.6463 8.19823 -61.2092
LeftForeArm  62.6877 -77.4645 -108.334
LeftHand  -1.97711 -0.164594 40.0779
RightShoulder  0.0873399 -4.69771 -17.6011
RightArm  -0.512136 7.52381 87.7006
RightForeArm  31.9993 77.7489 92.1883
RightHand  -4.62829 7.5371 -40.193
LeftUpLeg  -3.05138 3.0856 9.77283
LeftLeg  14.2213 9.79637 4.15945
LeftFoot  18.8258 5.35605 -20.132
LeftToes  -3.91115e-011 -2.2622e-010 9.51032e-012
206
root  -8.68466 42.279 2.35419 -177.942 41.9696 179.051
RightUpLeg  -10.577 -9.33846 -10.694
RightLeg  4.61783 -6.20987 -0.544199
RightFoot  38.1102 -10.0504 22.2291
RightToes  -5.8209e-011 0 -3.6325e-017
Spine  9.28087 -1.82067 -1.28217
Spine1  10.6034 3.01028 -17.5715
HEad  17.0042 25.1149 20.0908
LeftShoulder1  0.240449 0.86593 -0.728615
LeftArm  21.448 10.2129 -59.9717
LeftForeArm  64.1986 -77.3793 -109.527
LeftHand  -1.99303 -0.189858 40.2004
RightShoulder  0.338691 -6.98871 -20.7358
RightArm  1.84939 12.9363 88.7844
RightForeArm  27.5831 77.6708 89.1297
RightHand  -4.64562 7.51182 -40.4013
LeftUpLeg  -4.48742 3.14453 9.34785
LeftLeg  12.768 5.86238 2.64056
LeftFoot  25.9485 6.07311 -18.3655
LeftToes  -3.91115e-011 -2.2622e-010 9.51032e-012
207
root  -9.10393 42.5443 2.17389 -177.855 40.3937 178.854
RightUpLeg  -9.89893 -7.9614 -9.00857
RightLeg  7.54257 -4.52737 -1.13739
RightFoot  34.7687 -9.44121 22.5735
RightToes  -5.8209e-011 0 -3.6325e-017
Spine  8.343 -1.8046 -1.20924
Spine1  11.3204 2.82245 -16.4427
HEad  16.2104 23.6932 20.0163
LeftShoulder1  0.390109 -0.0807232 -2.76386
LeftArm  21.3808 11.1528 -59.1592
LeftForeArm  62.44 -77.6489 -106.287
LeftHand  -1.93776 -0.158068 39.3574
RightShoulder  0.358257 -7.21511 -20.4084
RightArm  2.57967 14.1769 87.079
RightForeArm  14.1559 77.3457 76.9923
RightHand  -4.63619 7.48757 -40.395
LeftUpLeg  -5.68635 1.394 8.71771
LeftLeg  12.1703 3.09674 2.26492
LeftFoot  27.8876 5.25912 -15.1664
LeftToes  -3.91115e-011 -2.2622e-010 9.51032e-012
